<?xml version="1.0" standalone="no"?><!DOCTYPE svg PUBLIC "-//W3C//DTD SVG 1.1//EN" "http://www.w3.org/Graphics/SVG/1.1/DTD/svg11.dtd"><svg t="1619363239212" class="icon" viewBox="0 0 1024 1024" version="1.1" xmlns="http://www.w3.org/2000/svg" p-id="5586" xmlns:xlink="http://www.w3.org/1999/xlink" width="32" height="32"><defs><style type="text/css"></style></defs><path d="M707 527.9l89.3 138.6C877.4 792.2 769 954.2 601.2 958l-184.9 4.2C248.5 966 147.2 808.8 233.9 679.3l95.6-142.8c86.7-129.6 296.4-134.4 377.5-8.6z" p-id="5587"></path><path d="M268.3 236.8a90 138 0 1 0 180 0 90 138 0 1 0-180 0Z" p-id="5588"></path><path d="M68.5 463.9a90 138 0 1 0 180 0 90 138 0 1 0-180 0Z" p-id="5589"></path><path d="M572.6 236.8a90 138 0 1 0 180 0 90 138 0 1 0-180 0Z" p-id="5590"></path><path d="M773.2 463.9a90 138 0 1 0 180 0 90 138 0 1 0-180 0Z" p-id="5591"></path></svg>